<svg xmlns="http://www.w3.org/2000/svg" viewBox="0 0 800 1973"><style>.st0{display:none;} .st1{display:inline;} .st2{fill:#FFFFFF;} .st3{fill:none;stroke:#9882CE;stroke-width:4;stroke-miterlimit:10;} .st4{fill:#FFFFFF;stroke:#404040;stroke-width:4;stroke-linecap:round;stroke-linejoin:round;stroke-miterlimit:10;} .st5{fill:#FFFFFF;stroke:#404040;stroke-width:4;stroke-miterlimit:10;} .st6{fill:#B3E3FF;stroke:#404040;stroke-width:4;stroke-miterlimit:10;} .st7{fill:#B18BE8;stroke:#404040;stroke-width:4;stroke-miterlimit:10;} .st8{fill:#FFFFFF;stroke:#404040;stroke-width:6;stroke-miterlimit:10;} .st9{fill:#B3E3FF;stroke:#404040;stroke-width:6;stroke-miterlimit:10;} .st10{fill:#404040;} .st11{fill:none;stroke:#404040;stroke-width:4;stroke-linecap:round;stroke-linejoin:round;stroke-miterlimit:10;} .st12{fill:#B18BE8;stroke:#404040;stroke-width:4;stroke-linecap:round;stroke-linejoin:round;stroke-miterlimit:10;} .st13{fill:#444444;} .st14{fill:none;stroke:#404040;stroke-width:4;stroke-miterlimit:10;} .st15{fill:#4ED1A1;stroke:#404040;stroke-width:4;stroke-miterlimit:10;} .st16{fill:none;stroke:#CCCCCC;stroke-width:7;stroke-linecap:round;stroke-linejoin:round;stroke-miterlimit:10;} .st17{fill:#FFFFFF;stroke:#CCCCCC;stroke-width:7;stroke-linecap:round;stroke-linejoin:round;stroke-miterlimit:10;} .st18{fill:none;stroke:#404040;stroke-width:7;stroke-miterlimit:10;} .st19{fill:#B3E3FF;stroke:#404040;stroke-width:7;stroke-miterlimit:10;} .st20{fill:none;stroke:#CCCCCC;stroke-width:8;stroke-linecap:round;stroke-miterlimit:10;} .st21{fill:none;stroke:#404040;stroke-width:8;stroke-linecap:round;stroke-miterlimit:10;} .st22{fill:#FFFFFF;stroke:#404040;stroke-width:4;stroke-linejoin:round;stroke-miterlimit:10;} .st23{fill:#B3E3FF;stroke:#404040;stroke-width:4;stroke-linejoin:round;stroke-miterlimit:10;} .st24{fill:none;stroke:#CCCCCC;stroke-linecap:round;stroke-linejoin:round;stroke-miterlimit:10;} .st25{fill:#999999;} .st26{fill:#4ED1A1;stroke:#404040;stroke-width:4;stroke-linecap:round;stroke-linejoin:round;stroke-miterlimit:10;} .st27{fill:#4CD3D6;stroke:#404040;stroke-width:4;stroke-linejoin:round;stroke-miterlimit:10;} .st28{fill:none;stroke:#59AFE1;stroke-width:4;stroke-miterlimit:10;} .st29{fill:#59AFE1;stroke:#404040;stroke-width:4;stroke-linejoin:round;stroke-miterlimit:10;} .st30{fill:none;stroke:#404040;stroke-width:8;stroke-linecap:round;stroke-linejoin:round;stroke-miterlimit:10;stroke-dasharray:0,30;} .st31{fill:#FFFFFF;stroke:#59AFE1;stroke-width:4;stroke-miterlimit:10;} .st32{fill:#FC8363;stroke:#404040;stroke-width:4;stroke-linecap:round;stroke-linejoin:round;stroke-miterlimit:10;} .st33{fill:#CCCCCC;stroke:#404040;stroke-width:4;stroke-miterlimit:10;} .st34{fill:#FFFFFF;stroke:#6693ED;stroke-width:4;stroke-miterlimit:10;} .st35{fill:none;stroke:#A97CDD;stroke-width:4;stroke-linecap:round;stroke-linejoin:round;stroke-miterlimit:10;} .st36{fill:none;stroke:#B3E3FF;stroke-width:4;stroke-linecap:round;stroke-linejoin:round;stroke-miterlimit:10;} .st37{fill:none;stroke:#4ED1A1;stroke-width:4;stroke-linecap:round;stroke-miterlimit:10;} .st38{fill:none;stroke:#4ED1A1;stroke-width:4;stroke-linecap:round;stroke-linejoin:round;stroke-miterlimit:10;} .st39{fill:#E24B88;stroke:#404040;stroke-width:4;stroke-linecap:round;stroke-linejoin:round;stroke-miterlimit:10;} .st40{fill:none;stroke:#DEEFF8;stroke-width:4;stroke-miterlimit:10;} .st41{fill:none;stroke:#CCCCCC;stroke-width:4;stroke-linecap:round;stroke-linejoin:round;} .st42{fill:none;stroke:#CCCCCC;stroke-width:4;stroke-linecap:round;stroke-linejoin:round;stroke-dasharray:0,14.3051;} .st43{fill:none;stroke:#CCCCCC;stroke-width:4;stroke-linecap:round;stroke-linejoin:round;stroke-dasharray:0,14.1689;} .st44{fill:none;stroke:#CCCCCC;stroke-width:4;stroke-linecap:round;stroke-linejoin:round;stroke-dasharray:0,13.9788;} .st45{fill:none;stroke:#CCCCCC;stroke-width:4;stroke-linecap:round;stroke-linejoin:round;stroke-dasharray:0,14.7877;} .st46{fill:none;stroke:#CCCCCC;stroke-width:4;stroke-linecap:round;stroke-linejoin:round;stroke-dasharray:0,14.9632;} .st47{fill:#B3E3FF;stroke:#404040;stroke-width:4;stroke-linecap:round;stroke-linejoin:round;stroke-miterlimit:10;} .st48{fill:none;stroke:#CCCCCC;stroke-width:4;stroke-linecap:round;stroke-linejoin:round;stroke-dasharray:0,12.543;} .st49{fill:none;stroke:#CCCCCC;stroke-width:4;stroke-linecap:round;stroke-linejoin:round;stroke-dasharray:0,13.6844;} .st50{fill:none;stroke:#CCCCCC;stroke-width:4;stroke-linecap:round;stroke-linejoin:round;stroke-dasharray:0,13.7717;} .st51{fill:none;stroke:#CCCCCC;stroke-width:4;stroke-linecap:round;stroke-linejoin:round;stroke-dasharray:0,13.6492;} .st52{fill:none;stroke:#CCCCCC;stroke-width:4;stroke-linecap:round;stroke-linejoin:round;stroke-dasharray:0,13.907;} .st53{fill:#4CD3D6;stroke:#404040;stroke-width:4;stroke-linecap:round;stroke-linejoin:round;stroke-miterlimit:10;} .st54{fill:none;stroke:#CCCCCC;stroke-width:4;stroke-linecap:round;stroke-linejoin:round;stroke-dasharray:0,14.9858;} .st55{fill:none;stroke:#CCCCCC;stroke-width:4;stroke-linecap:round;stroke-linejoin:round;stroke-dasharray:0,14.0118;} .st56{fill:none;stroke:#CCCCCC;stroke-width:4;stroke-linecap:round;stroke-linejoin:round;stroke-dasharray:0,14.1243;} .st57{fill:none;} .st58{fill:#FFFFFF;stroke:#404040;stroke-width:7;stroke-linecap:round;stroke-linejoin:round;stroke-miterlimit:10;} .st59{fill:#59AFE1;stroke:#404040;stroke-width:7;stroke-linejoin:round;stroke-miterlimit:10;} .st60{fill:#E24B88;stroke:#404040;stroke-width:7;stroke-linecap:round;stroke-linejoin:round;stroke-miterlimit:10;} .st61{fill:none;stroke:#404040;stroke-width:7;stroke-linecap:round;stroke-linejoin:round;stroke-miterlimit:10;} .st62{fill:none;stroke:#CCCCCC;stroke-width:4;stroke-linecap:round;stroke-linejoin:round;stroke-miterlimit:10;} .st63{fill:#FFFFFF;stroke:#CCCCCC;stroke-width:4;stroke-linecap:round;stroke-linejoin:round;stroke-miterlimit:10;} .st64{fill:#F5F5F5;} .st65{fill:#3873AE;} .st66{fill:#75706C;} .st67{fill:none;stroke:#B3E3FF;stroke-width:4;stroke-miterlimit:10;} .st68{fill:#6F6F6F;} .st69{fill:none;stroke:#6F6F6F;stroke-width:2;stroke-miterlimit:10;} .st70{fill:none;stroke:#6F6F6F;stroke-width:3;stroke-miterlimit:10;}</style><g id="migrating_x5F_share_x5F_2"><path id="repo1_348_" class="st6" d="M230 1272.5c0-12.4 28.2-22.4 63-22.4s63 10 63 22.4m-126 0v27.9c0 3 1.7 5.9 4.7 8.5 9.4 8.2 32 13.9 58.3 13.9 26.4 0 48.9-5.8 58.3-13.9 3-2.6 4.7-5.5 4.7-8.5v-27.9"/><path class="st34" d="M356 1272.5c0 12.4-28.2 22.4-63 22.4s-63-10-63-22.4c0-12.4 28.2-22.4 63-22.4s63 10 63 22.4z"/><path id="repo1_347_" class="st6" d="M230 1244.6c0-12.4 28.2-22.4 63-22.4s63 10 63 22.4m-126 0v27.9c0 3 1.7 5.9 4.7 8.5 9.4 8.2 32 13.9 58.3 13.9 26.4 0 48.9-5.8 58.3-13.9 3-2.6 4.7-5.5 4.7-8.5v-27.9"/><path class="st34" d="M356 1244.6c0 12.4-28.2 22.4-63 22.4s-63-10-63-22.4 28.2-22.4 63-22.4 63 10 63 22.4z"/><path id="repo1_346_" class="st6" d="M230 1216.7c0-12.4 28.2-22.4 63-22.4s63 10 63 22.4m-126 0v27.9c0 3 1.7 5.9 4.7 8.5 9.4 8.2 32 13.9 58.3 13.9 26.4 0 48.9-5.8 58.3-13.9 3-2.6 4.7-5.5 4.7-8.5v-27.9"/><path class="st34" d="M356 1216.7c0 12.4-28.2 22.4-63 22.4s-63-10-63-22.4c0-12.4 28.2-22.4 63-22.4s63 10 63 22.4z"/><path id="repo1_345_" class="st6" d="M230 1188.8c0-12.4 28.2-22.4 63-22.4s63 10 63 22.4m-126 0v27.9c0 3 1.7 5.9 4.7 8.5 9.4 8.2 32 13.9 58.3 13.9 26.4 0 48.9-5.8 58.3-13.9 3-2.6 4.7-5.5 4.7-8.5v-27.9"/><path class="st5" d="M356 1188.8c0 12.4-28.2 22.4-63 22.4s-63-10-63-22.4c0-12.4 28.2-22.4 63-22.4s63 10 63 22.4z"/><path id="repo1_344_" class="st12" d="M444 1272.5c0-12.4 28.2-22.4 63-22.4s63 10 63 22.4m-126 0v27.9c0 3 1.7 5.9 4.7 8.5 9.4 8.2 32 13.9 58.3 13.9 26.4 0 48.9-5.8 58.3-13.9 3-2.6 4.7-5.5 4.7-8.5v-27.9"/><path class="st34" d="M570 1272.5c0 12.4-28.2 22.4-63 22.4s-63-10-63-22.4c0-12.4 28.2-22.4 63-22.4s63 10 63 22.4z"/><path id="repo1_343_" class="st12" d="M444 1244.6c0-12.4 28.2-22.4 63-22.4s63 10 63 22.4m-126 0v27.9c0 3 1.7 5.9 4.7 8.5 9.4 8.2 32 13.9 58.3 13.9 26.4 0 48.9-5.8 58.3-13.9 3-2.6 4.7-5.5 4.7-8.5v-27.9"/><path class="st34" d="M570 1244.6c0 12.4-28.2 22.4-63 22.4s-63-10-63-22.4 28.2-22.4 63-22.4 63 10 63 22.4z"/><path id="repo1_342_" class="st12" d="M444 1216.7c0-12.4 28.2-22.4 63-22.4s63 10 63 22.4m-126 0v27.9c0 3 1.7 5.9 4.7 8.5 9.4 8.2 32 13.9 58.3 13.9 26.4 0 48.9-5.8 58.3-13.9 3-2.6 4.7-5.5 4.7-8.5v-27.9"/><path class="st34" d="M570 1216.7c0 12.4-28.2 22.4-63 22.4s-63-10-63-22.4c0-12.4 28.2-22.4 63-22.4s63 10 63 22.4z"/><path id="repo1_341_" class="st12" d="M444 1188.8c0-12.4 28.2-22.4 63-22.4s63 10 63 22.4m-126 0v27.9c0 3 1.7 5.9 4.7 8.5 9.4 8.2 32 13.9 58.3 13.9 26.4 0 48.9-5.8 58.3-13.9 3-2.6 4.7-5.5 4.7-8.5v-27.9"/><path class="st5" d="M570 1188.8c0 12.4-28.2 22.4-63 22.4s-63-10-63-22.4c0-12.4 28.2-22.4 63-22.4s63 10 63 22.4z"/><path class="st11" d="M489.9 1886.4c3.1 6.8 9.9 11.2 17.3 11.2 7.5 0 14.3-4.4 17.4-11.3"/><path class="st12" d="M506.8 1930.6s27.4.8 37.7-5.2c17-9.9-.3-30.2-13.7-33.6-4.1 7.7-13.3 13-24 13h.3c-10.7 0-19.8-5.4-24-13-13.4 3.4-30.7 23.8-13.7 33.6 10.3 6 37.7 5.2 37.7 5.2"/><circle class="st12" cx="507.3" cy="1860.9" r="23"/><path class="st5" d="M517.9 1848.7c2.6 20 7.9 2.4 11.8 17-2.2 10.4-11.4 18.2-22.5 18.2-12.7 0-23-10.3-23-23 0-1.3.1-2.6.3-3.9 1.2.1 26.3 11.1 33.4-8.3z"/><path class="st11" d="M519.8 1881.2v10.6m-24.6 0v-10.3"/><path class="st4" d="M275.4 1886.4c3.1 6.8 9.9 11.2 17.3 11.2 7.5 0 14.3-4.4 17.4-11.3"/><path class="st6" d="M292.8 1930.6s27.4.8 37.7-5.2c17-9.9-.3-30.2-13.7-33.6-4.1 7.7-13.3 13-24 13h.3c-10.7 0-19.8-5.4-24-13-13.4 3.4-30.7 23.8-13.7 33.6 10.3 6 37.7 5.2 37.7 5.2"/><circle class="st6" cx="292.7" cy="1860.9" r="23"/><path class="st4" d="M302.8 1840.2c-6.7 17.2-19.4.5-32.6 25.5 2.2 10.4 11.4 18.2 22.5 18.2 12.7 0 23-10.3 23-23 0-1.3-11.1-5.9-12.9-20.7zm2.5 40v11.6m-24.6 0v-11.3"/><path class="st6" d="M269.7 1861.4s0 10.6 4.6 14.5c-3.6 1.7-11.6-.9-10.5-1.7 4.5-3.1 5.9-12.8 5.9-12.8zm46-.5s-.2 11.1-4.8 15c3.6 1.7 11.6-.9 10.5-1.7-4.5-3.1-5.7-13.3-5.7-13.3z"/><path class="st36" d="M293 1409.2v89.1m63-91l82.2 82.2m1.4-13.9v15.3h-15.3m-142.2-72.7l10.9-10.9 10.9 10.9"/><path class="st35" d="M507 1409.2v89.1"/><path class="st36" d="M293 1775.2v29.1"/><path class="st35" d="M507 1775.2v29.1m-10.9-386.1l10.9-10.9 10.9 10.9m-78.3-10.9l-82.2 82.2m-1.4-13.9v15.3h15.4"/><path class="st10" d="M273.1 1349.2v4.3h-1.5v-10.6h3.9c2 0 3.3 1.4 3.3 3.1 0 1.8-1.3 3.1-3.3 3.1h-2.4zm2.2-1.3c1.3 0 2.1-.7 2.1-1.8s-.8-1.8-2.1-1.8h-2.1v3.6h2.1zm8.2 5.9c-1.7 0-2.7-1.3-2.7-2.9v-4.5h1.4v4.3c0 1 .5 1.9 1.6 1.9s1.7-.8 1.7-1.8v-4.3h1.4v5.9c0 .6 0 1.1.1 1.3h-1.3c0-.2-.1-.6-.1-.9-.3.6-1.2 1-2.1 1zm6.7-.3v-10.9h1.4v4.7c.3-.6 1.2-1.2 2.4-1.2 2.2 0 3.3 1.7 3.3 3.8 0 2.1-1.2 3.8-3.4 3.8-1.1 0-1.9-.5-2.3-1.2v1h-1.4zm3.5-6.1c-1.2 0-2.1 1-2.1 2.5 0 1.6.9 2.6 2.1 2.6 1.3 0 2.1-1 2.1-2.6s-.8-2.5-2.1-2.5zm6.1 6.1v-10.9h1.4v10.9h-1.4zm5.3-10.9c.6 0 1 .5 1 1 0 .6-.5 1-1 1-.6 0-1-.5-1-1 0-.6.4-1 1-1zm-.7 10.9v-7.2h1.4v7.2h-1.4zm5.4-3.6c0 1.7 1 2.5 2.2 2.5 1.4 0 1.8-.9 2-1.5l1.2.5c-.3 1-1.4 2.2-3.3 2.2-2.1 0-3.6-1.6-3.6-3.8 0-2.2 1.6-3.8 3.6-3.8 1.9 0 2.9 1.2 3.2 2.3l-1.3.5c-.2-.7-.7-1.5-1.9-1.5-1.1.1-2.1.9-2.1 2.6zm-37.7 21.6l-.1-1.5c-.5.8-1.6 1.7-3.4 1.7-2.7 0-5.2-2-5.2-5.5s2.6-5.5 5.3-5.5c2.3 0 4.1 1.3 4.7 3.2l-1.3.6c-.5-1.5-1.7-2.4-3.4-2.4-1.9 0-3.8 1.4-3.8 4.2 0 2.8 1.8 4.2 3.7 4.2 2.4 0 3.2-1.7 3.3-2.8h-3.7v-1.3h5.1v5.2h-1.2zm4.7-10.9c.6 0 1 .5 1 1 0 .6-.5 1-1 1-.6 0-1-.5-1-1 0-.6.4-1 1-1zm-.7 10.9v-7.2h1.4v7.2h-1.4zm6.4-7.2h1.6v1.3h-1.6v3.8c0 .7.3 1 1 1 .2 0 .4 0 .6-.1v1.2c-.1 0-.5.1-1 .1-1.2 0-2-.8-2-2.1v-4h-1.4v-1.3h.4c.8 0 1.1-.5 1.1-1.1v-1.2h1.3v2.4zm12.7 1.5h-.6c-1.2 0-2 .6-2 2.2v3.6h-1.4v-7.2h1.4v1.3c.5-1.1 1.4-1.4 2.2-1.4h.5v1.5zm8.5 3.7c-.4 1.3-1.6 2.3-3.2 2.3-1.9 0-3.6-1.4-3.6-3.9 0-2.3 1.6-3.8 3.5-3.8 2.2 0 3.5 1.5 3.5 3.8v.5h-5.4c0 1.3 1 2.2 2.2 2.2 1.2 0 1.8-.6 2-1.5l1 .4zm-1.4-2.3c0-1-.7-1.8-2-1.8-1.2 0-1.9.9-2 1.8h4zm4 7.2v-10.1h1.4v1.1c.4-.7 1.2-1.3 2.4-1.3 2.2 0 3.3 1.7 3.3 3.8 0 2.1-1.2 3.8-3.4 3.8-1.1 0-2-.5-2.3-1.2v3.8h-1.4zm3.5-9c-1.3 0-2.1 1.1-2.1 2.5 0 1.5.9 2.5 2.1 2.5 1.3 0 2.1-1.1 2.1-2.5s-.8-2.5-2.1-2.5zm12.9 2.5c0 2.2-1.5 3.8-3.7 3.8s-3.7-1.6-3.7-3.8c0-2.2 1.5-3.8 3.7-3.8s3.7 1.6 3.7 3.8zm-1.4 0c0-1.7-1-2.6-2.2-2.6s-2.2.9-2.2 2.6c0 1.7 1 2.6 2.2 2.6s2.2-.9 2.2-2.6zm165.9-18.7v4.3h-1.5v-10.6h3.9c2 0 3.3 1.4 3.3 3.1 0 1.8-1.3 3.1-3.3 3.1h-2.4zm2.1-1.3c1.3 0 2.1-.7 2.1-1.8s-.8-1.8-2.1-1.8h-2.1v3.6h2.1zm8.3 5.9c-1.7 0-2.7-1.3-2.7-2.9v-4.5h1.4v4.3c0 1 .5 1.9 1.6 1.9s1.7-.8 1.7-1.8v-4.3h1.4v5.9c0 .6 0 1.1.1 1.3h-1.3c0-.2-.1-.6-.1-.9-.4.6-1.3 1-2.1 1zm6.6-.3v-10.9h1.4v4.7c.3-.6 1.2-1.2 2.4-1.2 2.2 0 3.3 1.7 3.3 3.8 0 2.1-1.2 3.8-3.4 3.8-1.1 0-1.9-.5-2.3-1.2v1h-1.4zm3.5-6.1c-1.2 0-2.1 1-2.1 2.5 0 1.6.9 2.6 2.1 2.6 1.3 0 2.1-1 2.1-2.6s-.8-2.5-2.1-2.5zm6.1 6.1v-10.9h1.4v10.9h-1.4zm5.3-10.9c.6 0 1 .5 1 1 0 .6-.5 1-1 1-.6 0-1-.5-1-1 0-.6.4-1 1-1zm-.7 10.9v-7.2h1.4v7.2h-1.4zm5.4-3.6c0 1.7 1 2.5 2.2 2.5 1.4 0 1.8-.9 2-1.5l1.2.5c-.3 1-1.4 2.2-3.3 2.2-2.1 0-3.6-1.6-3.6-3.8 0-2.2 1.6-3.8 3.6-3.8 1.9 0 2.9 1.2 3.2 2.3l-1.3.5c-.2-.7-.7-1.5-1.9-1.5-1.1.1-2.1.9-2.1 2.6zm-37.7 21.6l-.1-1.5c-.5.8-1.6 1.7-3.4 1.7-2.7 0-5.2-2-5.2-5.5s2.6-5.5 5.3-5.5c2.3 0 4.1 1.3 4.7 3.2l-1.3.6c-.5-1.5-1.7-2.4-3.4-2.4-1.9 0-3.8 1.4-3.8 4.2 0 2.8 1.8 4.2 3.7 4.2 2.4 0 3.2-1.7 3.3-2.8h-3.7v-1.3h5.1v5.2h-1.2zm4.7-10.9c.6 0 1 .5 1 1 0 .6-.5 1-1 1-.6 0-1-.5-1-1 0-.6.5-1 1-1zm-.7 10.9v-7.2h1.4v7.2h-1.4zm6.5-7.2h1.6v1.3h-1.6v3.8c0 .7.3 1 1 1 .2 0 .4 0 .6-.1v1.2c-.1 0-.5.1-1 .1-1.2 0-2-.8-2-2.1v-4h-1.4v-1.3h.4c.8 0 1.1-.5 1.1-1.1v-1.2h1.3v2.4zm12.6 1.5h-.6c-1.2 0-2 .6-2 2.2v3.6h-1.4v-7.2h1.4v1.3c.5-1.1 1.4-1.4 2.2-1.4h.5v1.5zm8.5 3.7c-.4 1.3-1.6 2.3-3.2 2.3-1.9 0-3.6-1.4-3.6-3.9 0-2.3 1.6-3.8 3.5-3.8 2.2 0 3.5 1.5 3.5 3.8v.5h-5.4c0 1.3 1 2.2 2.2 2.2 1.2 0 1.8-.6 2-1.5l1 .4zm-1.4-2.3c0-1-.7-1.8-2-1.8-1.2 0-1.9.9-2 1.8h4zm4 7.2v-10.1h1.4v1.1c.4-.7 1.2-1.3 2.4-1.3 2.2 0 3.3 1.7 3.3 3.8 0 2.1-1.2 3.8-3.4 3.8-1.1 0-2-.5-2.3-1.2v3.8h-1.4zm3.5-9c-1.3 0-2.1 1.1-2.1 2.5 0 1.5.9 2.5 2.1 2.5 1.3 0 2.1-1.1 2.1-2.5.1-1.4-.8-2.5-2.1-2.5zm12.9 2.5c0 2.2-1.5 3.8-3.7 3.8s-3.7-1.6-3.7-3.8c0-2.2 1.5-3.8 3.7-3.8s3.7 1.6 3.7 3.8zm-1.4 0c0-1.7-1-2.6-2.2-2.6s-2.2.9-2.2 2.6c0 1.7 1 2.6 2.2 2.6s2.2-.9 2.2-2.6z"/><path id="repo1_352_" class="st6" d="M230 1638.4c0-12.4 28.2-22.4 63-22.4s63 10 63 22.4m-126 0v27.9c0 3 1.7 5.9 4.7 8.5 9.4 8.2 32 13.9 58.3 13.9 26.4 0 48.9-5.8 58.3-13.9 3-2.6 4.7-5.5 4.7-8.5v-27.9"/><path class="st34" d="M356 1638.4c0 12.4-28.2 22.4-63 22.4s-63-10-63-22.4c0-12.4 28.2-22.4 63-22.4s63 10 63 22.4z"/><path id="repo1_351_" class="st6" d="M230 1610.5c0-12.4 28.2-22.4 63-22.4s63 10 63 22.4m-126 0v27.9c0 3 1.7 5.9 4.7 8.5 9.4 8.2 32 13.9 58.3 13.9 26.4 0 48.9-5.8 58.3-13.9 3-2.6 4.7-5.5 4.7-8.5v-27.9"/><path class="st34" d="M356 1610.5c0 12.4-28.2 22.4-63 22.4s-63-10-63-22.4c0-12.4 28.2-22.4 63-22.4s63 10 63 22.4z"/><path id="repo1_350_" class="st6" d="M230 1582.6c0-12.4 28.2-22.4 63-22.4s63 10 63 22.4m-126 0v27.9c0 3 1.7 5.9 4.7 8.5 9.4 8.2 32 13.9 58.3 13.9 26.4 0 48.9-5.8 58.3-13.9 3-2.6 4.7-5.5 4.7-8.5v-27.9"/><path class="st34" d="M356 1582.6c0 12.4-28.2 22.4-63 22.4s-63-10-63-22.4c0-12.4 28.2-22.4 63-22.4s63 10 63 22.4z"/><path id="repo1_349_" class="st6" d="M230 1554.7c0-12.4 28.2-22.4 63-22.4s63 10 63 22.4m-126 0v27.9c0 3 1.7 5.9 4.7 8.5 9.4 8.2 32 13.9 58.3 13.9 26.4 0 48.9-5.8 58.3-13.9 3-2.6 4.7-5.5 4.7-8.5v-27.9"/><path class="st5" d="M356 1554.7c0 12.4-28.2 22.4-63 22.4s-63-10-63-22.4c0-12.4 28.2-22.4 63-22.4s63 10 63 22.4z"/><path id="repo1_340_" class="st12" d="M444 1638.4c0-12.4 28.2-22.4 63-22.4s63 10 63 22.4m-126 0v27.9c0 3 1.7 5.9 4.7 8.5 9.4 8.2 32 13.9 58.3 13.9 26.4 0 48.9-5.8 58.3-13.9 3-2.6 4.7-5.5 4.7-8.5v-27.9"/><path class="st34" d="M570 1638.4c0 12.4-28.2 22.4-63 22.4s-63-10-63-22.4c0-12.4 28.2-22.4 63-22.4s63 10 63 22.4z"/><path id="repo1_339_" class="st12" d="M444 1610.5c0-12.4 28.2-22.4 63-22.4s63 10 63 22.4m-126 0v27.9c0 3 1.7 5.9 4.7 8.5 9.4 8.2 32 13.9 58.3 13.9 26.4 0 48.9-5.8 58.3-13.9 3-2.6 4.7-5.5 4.7-8.5v-27.9"/><path class="st34" d="M570 1610.5c0 12.4-28.2 22.4-63 22.4s-63-10-63-22.4c0-12.4 28.2-22.4 63-22.4s63 10 63 22.4z"/><path id="repo1_338_" class="st12" d="M444 1582.6c0-12.4 28.2-22.4 63-22.4s63 10 63 22.4m-126 0v27.9c0 3 1.7 5.9 4.7 8.5 9.4 8.2 32 13.9 58.3 13.9 26.4 0 48.9-5.8 58.3-13.9 3-2.6 4.7-5.5 4.7-8.5v-27.9"/><path class="st34" d="M570 1582.6c0 12.4-28.2 22.4-63 22.4s-63-10-63-22.4c0-12.4 28.2-22.4 63-22.4s63 10 63 22.4z"/><path id="repo1_337_" class="st12" d="M444 1554.7c0-12.4 28.2-22.4 63-22.4s63 10 63 22.4m-126 0v27.9c0 3 1.7 5.9 4.7 8.5 9.4 8.2 32 13.9 58.3 13.9 26.4 0 48.9-5.8 58.3-13.9 3-2.6 4.7-5.5 4.7-8.5v-27.9"/><path class="st5" d="M570 1554.7c0 12.4-28.2 22.4-63 22.4s-63-10-63-22.4c0-12.4 28.2-22.4 63-22.4s63 10 63 22.4z"/><path class="st10" d="M274.7 1719.4v-10.6h1.5v9.3h5v1.4h-6.5zm15.5-3.6c0 2.2-1.5 3.8-3.7 3.8s-3.7-1.6-3.7-3.8c0-2.2 1.5-3.8 3.7-3.8s3.7 1.6 3.7 3.8zm-1.4 0c0-1.7-1-2.6-2.2-2.6s-2.2.9-2.2 2.6c0 1.7 1 2.6 2.2 2.6s2.2-.9 2.2-2.6zm4.8 0c0 1.6 1 2.5 2.2 2.5 1.4 0 1.8-.9 2-1.5l1.2.5c-.3 1-1.4 2.2-3.3 2.2-2.1 0-3.6-1.6-3.6-3.8 0-2.2 1.6-3.8 3.6-3.8 1.9 0 2.9 1.2 3.2 2.3l-1.3.5c-.2-.7-.7-1.5-1.9-1.5-1 .1-2.1.9-2.1 2.6zm9.6-.5l2-.3c.4-.1.6-.3.6-.5 0-.7-.5-1.3-1.6-1.3-1 0-1.5.6-1.6 1.5l-1.3-.3c.1-1.4 1.4-2.3 3-2.3 2.2 0 3 1.2 3 2.6v3.6c0 .6.1 1 .1 1.2h-1.4c0-.2-.1-.5-.1-1-.3.5-1 1.2-2.3 1.2-1.5 0-2.4-1-2.4-2.2-.2-1.3.7-2 2-2.2zm2.5 1v-.3l-2.2.3c-.6.1-1.1.4-1.1 1.1 0 .5.5 1 1.2 1 1.1.1 2.1-.5 2.1-2.1zm4.3 3.1v-10.9h1.4v10.9h-1.4zm-37.9 18l-.1-1.5c-.5.8-1.6 1.7-3.4 1.7-2.7 0-5.2-2-5.2-5.5 0-3.6 2.6-5.5 5.3-5.5 2.3 0 4.1 1.3 4.7 3.2l-1.3.6c-.5-1.5-1.7-2.4-3.4-2.4-1.9 0-3.8 1.4-3.8 4.2s1.8 4.2 3.7 4.2c2.4 0 3.2-1.7 3.3-2.8h-3.7v-1.3h5.1v5.2h-1.2zm4.7-10.9c.6 0 1 .4 1 1s-.5 1-1 1c-.6 0-1-.5-1-1 0-.6.4-1 1-1zm-.7 10.9v-7.2h1.4v7.2h-1.4zm6.4-7.2h1.6v1.3h-1.6v3.8c0 .7.3 1 1 1 .2 0 .4 0 .6-.1v1.2c-.1 0-.5.1-1 .1-1.2 0-2-.8-2-2.1v-4h-1.4v-1.3h.4c.8 0 1.1-.5 1.1-1.1v-1.2h1.3v2.4zm12.7 1.4h-.6c-1.2 0-2 .6-2 2.2v3.6h-1.4v-7.2h1.4v1.3c.5-1.1 1.4-1.4 2.2-1.4h.5v1.5zm8.5 3.8c-.4 1.3-1.6 2.3-3.2 2.3-1.9 0-3.6-1.4-3.6-3.9 0-2.3 1.6-3.8 3.5-3.8 2.2 0 3.5 1.5 3.5 3.8v.4h-5.4c0 1.3 1 2.2 2.2 2.2 1.2 0 1.8-.6 2-1.5l1 .5zm-1.4-2.3c0-1-.7-1.8-2-1.8-1.2 0-1.9.9-2 1.8h4zm4 7.2v-10.1h1.4v1.1c.4-.7 1.2-1.3 2.4-1.3 2.2 0 3.3 1.7 3.3 3.8 0 2.1-1.2 3.8-3.4 3.8-1.1 0-2-.5-2.3-1.2v3.8h-1.4zm3.5-9c-1.3 0-2.1 1.1-2.1 2.5 0 1.5.9 2.5 2.1 2.5 1.3 0 2.1-1.1 2.1-2.5s-.8-2.5-2.1-2.5zm12.9 2.5c0 2.2-1.5 3.8-3.7 3.8s-3.7-1.6-3.7-3.8c0-2.2 1.5-3.8 3.7-3.8s3.7 1.6 3.7 3.8zm-1.4 0c0-1.7-1-2.6-2.2-2.6s-2.2.9-2.2 2.6c0 1.7 1 2.6 2.2 2.6s2.2-.9 2.2-2.6zm167.4-14.4v-10.6h1.5v9.3h5v1.4h-6.5zm15.6-3.6c0 2.2-1.5 3.8-3.7 3.8s-3.7-1.6-3.7-3.8c0-2.2 1.5-3.8 3.7-3.8 2.1 0 3.7 1.6 3.7 3.8zm-1.5 0c0-1.7-1-2.6-2.2-2.6s-2.2.9-2.2 2.6c0 1.7 1 2.6 2.2 2.6s2.2-.9 2.2-2.6zm4.8 0c0 1.6 1 2.5 2.2 2.5 1.4 0 1.8-.9 2-1.5l1.2.5c-.3 1-1.4 2.2-3.3 2.2-2.1 0-3.6-1.6-3.6-3.8 0-2.2 1.6-3.8 3.6-3.8 1.9 0 2.9 1.2 3.2 2.3l-1.3.5c-.2-.7-.7-1.5-1.9-1.5-1 .1-2.1.9-2.1 2.6zm9.6-.5l2-.3c.4-.1.6-.3.6-.5 0-.7-.5-1.3-1.6-1.3-1 0-1.5.6-1.6 1.5l-1.3-.3c.1-1.4 1.4-2.3 3-2.3 2.2 0 3 1.2 3 2.6v3.6c0 .6.1 1 .1 1.2h-1.4c0-.2-.1-.5-.1-1-.3.5-1 1.2-2.3 1.2-1.5 0-2.4-1-2.4-2.2-.2-1.3.7-2 2-2.2zm2.5 1v-.3l-2.2.3c-.6.1-1.1.4-1.1 1.1 0 .5.5 1 1.2 1 1.1.1 2.1-.5 2.1-2.1zm4.3 3.1v-10.9h1.4v10.9h-1.4zm-37.9 18l-.1-1.5c-.5.8-1.6 1.7-3.4 1.7-2.7 0-5.2-2-5.2-5.5 0-3.6 2.6-5.5 5.3-5.5 2.3 0 4.1 1.3 4.7 3.2l-1.3.6c-.5-1.5-1.7-2.4-3.4-2.4-1.9 0-3.8 1.4-3.8 4.2s1.8 4.2 3.7 4.2c2.4 0 3.2-1.7 3.3-2.8h-3.7v-1.3h5.1v5.2h-1.2zm4.7-10.9c.6 0 1 .4 1 1s-.5 1-1 1c-.6 0-1-.5-1-1 0-.6.5-1 1-1zm-.7 10.9v-7.2h1.4v7.2h-1.4zm6.5-7.2h1.6v1.3h-1.6v3.8c0 .7.3 1 1 1 .2 0 .4 0 .6-.1v1.2c-.1 0-.5.1-1 .1-1.2 0-2-.8-2-2.1v-4h-1.4v-1.3h.4c.8 0 1.1-.5 1.1-1.1v-1.2h1.3v2.4zm12.6 1.4h-.6c-1.2 0-2 .6-2 2.2v3.6h-1.4v-7.2h1.4v1.3c.5-1.1 1.4-1.4 2.2-1.4h.5v1.5zm8.5 3.8c-.4 1.3-1.6 2.3-3.2 2.3-1.9 0-3.6-1.4-3.6-3.9 0-2.3 1.6-3.8 3.5-3.8 2.2 0 3.5 1.5 3.5 3.8v.4h-5.4c0 1.3 1 2.2 2.2 2.2 1.2 0 1.8-.6 2-1.5l1 .5zm-1.4-2.3c0-1-.7-1.8-2-1.8-1.2 0-1.9.9-2 1.8h4zm4 7.2v-10.1h1.4v1.1c.4-.7 1.2-1.3 2.4-1.3 2.2 0 3.3 1.7 3.3 3.8 0 2.1-1.2 3.8-3.4 3.8-1.1 0-2-.5-2.3-1.2v3.8h-1.4zm3.5-9c-1.3 0-2.1 1.1-2.1 2.5 0 1.5.9 2.5 2.1 2.5 1.3 0 2.1-1.1 2.1-2.5.1-1.4-.8-2.5-2.1-2.5zm12.9 2.5c0 2.2-1.5 3.8-3.7 3.8s-3.7-1.6-3.7-3.8c0-2.2 1.5-3.8 3.7-3.8s3.7 1.6 3.7 3.8zm-1.4 0c0-1.7-1-2.6-2.2-2.6s-2.2.9-2.2 2.6c0 1.7 1 2.6 2.2 2.6s2.2-.9 2.2-2.6zm-266 229.2v-10.6h3.7c2.7 0 5.1 1.8 5.1 5.3s-2.4 5.3-5.1 5.3h-3.7zm3.7-1.3c2 0 3.6-1.3 3.6-4s-1.6-4-3.6-4h-2.2v8h2.2zm14-.7c-.4 1.3-1.6 2.3-3.2 2.3-1.9 0-3.6-1.4-3.6-3.9 0-2.3 1.6-3.8 3.5-3.8 2.2 0 3.5 1.5 3.5 3.8v.4h-5.4c0 1.3 1 2.2 2.2 2.2 1.2 0 1.8-.6 2-1.5l1 .5zm-1.4-2.3c0-1-.7-1.8-2-1.8-1.2 0-1.9.9-2 1.8h4zm7.2 4.3h-1.4l-2.9-7.2h1.6l2.1 5.6 2.1-5.6h1.5l-3 7.2zm9.7-7.2h2.2l.5-2.5h1.3l-.5 2.5h2.1l.5-2.5h1.3l-.5 2.5h2v1.1h-2.3l-.5 2.4h2v1.1h-2.3l-.5 2.5h-1.3l.5-2.5h-2.1l-.5 2.5h-1.3l.5-2.5h-1.9v-1.1h2.1l.5-2.4h-1.9v-1.1zm2.7 3.6h2.1l.5-2.4h-2.1l-.5 2.4zm10.2 3.6v-6.9h-2.4v-1c1.3 0 2.3-.8 2.5-1.8h1.3v9.7h-1.4zm166.6 0v-10.6h3.7c2.7 0 5.1 1.8 5.1 5.3s-2.4 5.3-5.1 5.3h-3.7zm3.7-1.3c2 0 3.6-1.3 3.6-4s-1.6-4-3.6-4h-2.2v8h2.2zm14-.7c-.4 1.3-1.6 2.3-3.2 2.3-1.9 0-3.6-1.4-3.6-3.9 0-2.3 1.6-3.8 3.5-3.8 2.2 0 3.5 1.5 3.5 3.8v.4h-5.4c0 1.3 1 2.2 2.2 2.2 1.2 0 1.8-.6 2-1.5l1 .5zm-1.4-2.3c0-1-.7-1.8-2-1.8-1.2 0-1.9.9-2 1.8h4zm7.2 4.3h-1.5l-2.9-7.2h1.6l2.1 5.6 2.1-5.6h1.5l-2.9 7.2zm9.7-7.2h2.2l.5-2.5h1.3l-.5 2.5h2.1l.5-2.5h1.3l-.5 2.5h2v1.1h-2.3l-.5 2.4h2v1.1h-2.3l-.5 2.5h-1.3l.5-2.5h-2.1l-.5 2.5h-1.3l.5-2.5h-1.9v-1.1h2.1l.5-2.4h-1.9v-1.1zm2.7 3.6h2.1l.5-2.4h-2.1l-.5 2.4zm8.2-2.8v-.4c0-1.7 1.2-3.1 3.4-3.1 2.1 0 3.3 1.4 3.3 3 0 1.3-.7 2.3-1.8 3l-1.9 1.2c-.6.4-1 .8-1.2 1.4h5v1.4h-6.8c0-1.6.7-2.8 2.3-3.9l1.6-1.1c.9-.6 1.3-1.3 1.3-2 0-.9-.6-1.7-1.8-1.7-1.3 0-1.9.9-1.9 2v.4l-1.5-.2z"/><path class="st25" d="M295.4 1093v-10.6h3.7c2.7 0 5.1 1.8 5.1 5.3s-2.4 5.3-5.1 5.3h-3.7zm3.6-1.3c2 0 3.6-1.3 3.6-4s-1.6-4-3.6-4h-2.2v8h2.2zm8.5-9.7c.6 0 1 .4 1 1s-.5 1-1 1c-.6 0-1-.5-1-1s.4-1 1-1zm-.7 11v-7.2h1.4v7.2h-1.4zm5.1-2.3c.1.8.7 1.3 1.7 1.3.8 0 1.2-.4 1.2-1 0-.4-.3-.8-.9-.9l-1.2-.3c-1.1-.2-1.8-1-1.8-2 0-1.2 1.2-2.3 2.6-2.3 2 0 2.6 1.3 2.7 1.9l-1.2.5c-.1-.4-.4-1.2-1.5-1.2-.7 0-1.2.5-1.2 1 0 .4.3.8.8.9l1.2.3c1.3.3 2 1.1 2 2.1s-.9 2.2-2.6 2.2c-2 0-2.8-1.3-2.9-2.1l1.1-.4zm8.8-4.9h1.6v1.3h-1.6v3.8c0 .7.3 1 1 1 .2 0 .4 0 .6-.1v1.2c-.1 0-.5.1-1 .1-1.2 0-2-.8-2-2.1v-4h-1.4v-1.3h.4c.8 0 1.1-.5 1.1-1.1v-1.2h1.3v2.4zm8.1 1.4h-.6c-1.2 0-2 .6-2 2.2v3.6h-1.4v-7.2h1.4v1.3c.5-1.1 1.4-1.4 2.2-1.4h.5v1.5zm2.9-5.2c.6 0 1 .4 1 1s-.4 1-1 1-1-.5-1-1 .5-1 1-1zm-.7 11v-7.2h1.4v7.2h-1.4zm4.6 0v-10.9h1.4v4.7c.3-.6 1.2-1.2 2.4-1.2 2.2 0 3.3 1.7 3.3 3.8 0 2.1-1.2 3.8-3.4 3.8-1.1 0-1.9-.5-2.3-1.2v1h-1.4zm3.5-6.2c-1.2 0-2.1 1-2.1 2.5 0 1.6.9 2.6 2.1 2.6 1.3 0 2.1-1 2.1-2.6 0-1.5-.8-2.5-2.1-2.5zm8.7 6.4c-1.7 0-2.7-1.3-2.7-2.9v-4.5h1.4v4.3c0 1 .5 1.9 1.6 1.9s1.7-.8 1.7-1.8v-4.4h1.4v5.9c0 .6 0 1.1.1 1.3h-1.3c0-.2-.1-.6-.1-.9-.4.8-1.3 1.1-2.1 1.1zm8.5-7.4h1.6v1.3h-1.6v3.8c0 .7.3 1 1 1 .2 0 .4 0 .6-.1v1.2c-.1 0-.5.1-1 .1-1.2 0-2-.8-2-2.1v-4h-1.4v-1.3h.4c.8 0 1.1-.5 1.1-1.1v-1.2h1.3v2.4zm10.4 5.1c-.4 1.3-1.6 2.3-3.2 2.3-1.9 0-3.6-1.4-3.6-3.9 0-2.3 1.6-3.8 3.4-3.8 2.2 0 3.5 1.5 3.5 3.8v.4h-5.4c0 1.3 1 2.2 2.2 2.2 1.2 0 1.8-.6 2-1.5l1.1.5zm-1.5-2.3c0-1-.7-1.8-2-1.8-1.2 0-1.9.9-2 1.8h4zm9.1 3.3c-.3.7-1.1 1.3-2.2 1.3-2.1 0-3.4-1.7-3.4-3.8 0-2 1.4-3.8 3.4-3.8 1.3 0 2 .6 2.2 1.2v-4.7h1.4v9.5c0 .7.1 1.2.1 1.3h-1.4c0-.2-.1-.5-.1-1zm-2.1 0c1.3 0 2.1-1.1 2.1-2.6s-.8-2.5-2.1-2.5-2.1 1-2.1 2.5.8 2.6 2.1 2.6zm19.3 1.1l-.1-1.5c-.5.8-1.6 1.7-3.4 1.7-2.7 0-5.2-2-5.2-5.5 0-3.6 2.6-5.5 5.3-5.5 2.3 0 4.1 1.3 4.7 3.2l-1.3.6c-.5-1.5-1.7-2.4-3.4-2.4-1.9 0-3.8 1.4-3.8 4.2s1.8 4.2 3.7 4.2c2.4 0 3.2-1.7 3.3-2.8h-3.7v-1.3h5.1v5.2h-1.2zm4.7-11c.6 0 1 .4 1 1s-.5 1-1 1c-.6 0-1-.5-1-1s.5-1 1-1zm-.6 11v-7.2h1.4v7.2h-1.4zm6.4-7.2h1.6v1.3h-1.6v3.8c0 .7.3 1 1 1 .2 0 .4 0 .6-.1v1.2c-.1 0-.5.1-1 .1-1.2 0-2-.8-2-2.1v-4h-1.4v-1.3h.4c.8 0 1.1-.5 1.1-1.1v-1.2h1.3v2.4zm13.7 6.1c-.3.7-1.1 1.3-2.2 1.3-2.1 0-3.4-1.7-3.4-3.8 0-2 1.4-3.8 3.4-3.8 1.3 0 2 .6 2.2 1.2v-4.7h1.4v9.5c0 .7.1 1.2.1 1.3h-1.4c0-.2-.1-.5-.1-1zm-2.1 0c1.3 0 2.1-1.1 2.1-2.6s-.8-2.5-2.1-2.5-2.1 1-2.1 2.5.8 2.6 2.1 2.6zm12.9-1c-.4 1.3-1.6 2.3-3.2 2.3-1.9 0-3.6-1.4-3.6-3.9 0-2.3 1.6-3.8 3.5-3.8 2.2 0 3.5 1.5 3.5 3.8v.4h-5.4c0 1.3 1 2.2 2.2 2.2 1.2 0 1.8-.6 2-1.5l1 .5zm-1.4-2.3c0-1-.7-1.8-2-1.8-1.2 0-1.9.9-2 1.8h4zm7.2 4.4h-1.4l-2.9-7.2h1.6l2.1 5.6 2.1-5.6h1.5l-3 7.2zm11-2.1c-.4 1.3-1.6 2.3-3.2 2.3-1.9 0-3.6-1.4-3.6-3.9 0-2.3 1.6-3.8 3.5-3.8 2.2 0 3.5 1.5 3.5 3.8v.4h-5.4c0 1.3 1 2.2 2.2 2.2 1.2 0 1.8-.6 2-1.5l1 .5zm-1.4-2.3c0-1-.7-1.8-2-1.8-1.2 0-1.9.9-2 1.8h4zm4 4.4v-10.9h1.4v10.9h-1.4zm11.3-3.6c0 2.2-1.5 3.8-3.7 3.8s-3.7-1.6-3.7-3.8c0-2.2 1.5-3.8 3.7-3.8 2.2-.1 3.7 1.6 3.7 3.8zm-1.4 0c0-1.7-1-2.6-2.2-2.6-1.2 0-2.2.9-2.2 2.6 0 1.7 1.1 2.6 2.2 2.6 1.2-.1 2.2-1 2.2-2.6zm4 6.4v-10.1h1.4v1.1c.4-.7 1.2-1.3 2.4-1.3 2.2 0 3.3 1.7 3.3 3.8 0 2.1-1.2 3.8-3.4 3.8-1.1 0-2-.5-2.3-1.2v3.8h-1.4zm3.5-8.9c-1.3 0-2.1 1.1-2.1 2.5 0 1.5.9 2.5 2.1 2.5 1.3 0 2.1-1.1 2.1-2.5.1-1.5-.8-2.5-2.1-2.5zm6.1 6.1v-7.2h1.4v1c.5-.8 1.3-1.2 2.2-1.2.9 0 1.8.4 2.2 1.4.6-1 1.5-1.4 2.4-1.4 1.3 0 2.5.9 2.5 2.7v4.7h-1.4v-4.5c0-.9-.5-1.6-1.5-1.6s-1.7.8-1.7 1.8v4.4h-1.5v-4.5c0-.9-.5-1.6-1.5-1.6s-1.7.8-1.7 1.8v4.3h-1.4zm19.9-2.1c-.4 1.3-1.6 2.3-3.2 2.3-1.9 0-3.6-1.4-3.6-3.9 0-2.3 1.6-3.8 3.5-3.8 2.2 0 3.5 1.5 3.5 3.8v.4h-5.4c0 1.3 1 2.2 2.2 2.2 1.2 0 1.8-.6 2-1.5l1 .5zm-1.4-2.3c0-1-.7-1.8-2-1.8-1.2 0-1.9.9-2 1.8h4zm5.4 4.4h-1.4v-7.2h1.4v1c.5-.9 1.4-1.2 2.2-1.2 1.7 0 2.6 1.2 2.6 2.9v4.6h-1.4v-4.3c0-1-.4-1.8-1.7-1.8-1.1 0-1.7.9-1.7 2v4zm9.7-7.2h1.6v1.3h-1.6v3.8c0 .7.3 1 1 1 .2 0 .4 0 .6-.1v1.2c-.1 0-.5.1-1 .1-1.2 0-2-.8-2-2.1v-4h-1.4v-1.3h.4c.8 0 1.1-.5 1.1-1.1v-1.2h1.3v2.4z"/></g><path class="st25" d="M288.8 15.7c0-3.6 2.6-5.5 5.3-5.5 2.4 0 4.1 1.3 4.7 3.4l-1.4.5c-.4-1.6-1.6-2.5-3.3-2.5-1.9 0-3.8 1.4-3.8 4.2s1.8 4.2 3.8 4.2c1.8 0 3-1.1 3.4-2.5l1.3.5c-.6 2-2.2 3.4-4.7 3.4-2.8-.1-5.3-2.1-5.3-5.7zm18.5 3.3c-.4 1.3-1.6 2.3-3.2 2.3-1.9 0-3.6-1.4-3.6-3.9 0-2.3 1.6-3.8 3.5-3.8 2.2 0 3.5 1.5 3.5 3.8v.4h-5.4c0 1.3 1 2.2 2.2 2.2 1.2 0 1.8-.6 2-1.5l1 .5zm-1.4-2.3c0-1-.7-1.8-2-1.8-1.2 0-1.9.9-2 1.8h4zm5.4 4.4h-1.4v-7.2h1.4v1c.5-.9 1.4-1.2 2.2-1.2 1.7 0 2.6 1.2 2.6 2.9v4.6h-1.4v-4.3c0-1-.4-1.8-1.7-1.8-1.1 0-1.7.9-1.7 2v4zm9.7-7.3h1.6v1.3h-1.6v3.7c0 .7.3 1 1 1 .2 0 .4 0 .6-.1v1.3c-.1 0-.5.1-1 .1-1.2 0-2-.8-2-2.1v-4h-1.4v-1.3h.4c.8 0 1.1-.5 1.1-1.1v-1.2h1.3v2.4zm8 1.5h-.6c-1.2 0-2 .6-2 2.2v3.6h-1.4v-7.2h1.4v1.3c.5-1.1 1.4-1.4 2.2-1.4h.5v1.5zm4 1.6l2-.3c.4-.1.6-.3.6-.5 0-.7-.5-1.3-1.6-1.3-1 0-1.5.6-1.6 1.5l-1.4-.3c.2-1.4 1.4-2.3 3-2.3 2.2 0 3 1.2 3 2.6v3.6c0 .6.1 1 .1 1.2h-1.4c0-.2-.1-.5-.1-1-.3.5-1 1.2-2.3 1.2-1.5 0-2.4-1-2.4-2.2-.1-1.3.8-2 2.1-2.2zm2.5 1.1v-.3l-2.2.3c-.6.1-1 .4-1 1.1 0 .5.5 1 1.2 1 1.1 0 2-.6 2-2.1zm4.3 3.1v-10.9h1.4v10.9h-1.4zm5.3-11c.6 0 1 .4 1 1s-.5 1-1 1c-.6 0-1-.5-1-1 0-.6.4-1 1-1zm-.7 11v-7.2h1.4v7.2h-1.4zm3.9 0v-1.2l4-4.7h-3.9v-1.3h5.7v1.2l-4 4.7h4v1.3h-5.8zm14.7-2.1c-.4 1.3-1.6 2.3-3.2 2.3-1.9 0-3.6-1.4-3.6-3.9 0-2.3 1.6-3.8 3.5-3.8 2.2 0 3.5 1.5 3.5 3.8v.4h-5.4c0 1.3 1 2.2 2.2 2.2 1.2 0 1.8-.6 2-1.5l1 .5zm-1.5-2.3c0-1-.7-1.8-2-1.8-1.2 0-1.9.9-2 1.8h4zm9.1 3.3c-.3.7-1.1 1.3-2.2 1.3-2.1 0-3.4-1.7-3.4-3.8 0-2 1.4-3.8 3.4-3.8 1.3 0 2 .6 2.2 1.2v-4.7h1.4v9.5c0 .7.1 1.2.1 1.3h-1.4c0-.2-.1-.5-.1-1zm-2.1 0c1.3 0 2.1-1.1 2.1-2.6s-.8-2.5-2.1-2.5-2.1 1-2.1 2.5.8 2.6 2.1 2.6zm16.7-6.7c-.1-.8-.8-1.8-2.2-1.8-1.2 0-2.1.8-2.1 1.8 0 .8.5 1.4 1.4 1.5l1.6.3c1.8.4 2.8 1.5 2.8 3 0 1.6-1.4 3.1-3.7 3.1-2.6 0-3.8-1.6-4-3.2l1.4-.4c.1 1.2.9 2.3 2.5 2.3 1.5 0 2.2-.8 2.2-1.7 0-.8-.5-1.4-1.6-1.6l-1.5-.3c-1.5-.3-2.6-1.3-2.6-2.9 0-1.7 1.5-3.2 3.5-3.2 2.4 0 3.4 1.5 3.6 2.6l-1.3.5zm11-2.9h1.5l-4.1 10.6h-1.5l-4-10.6h1.6l3.2 8.7 3.3-8.7zm11.1 10.7l-5.7-8.7v8.7h-1.6v-10.7h2l5.3 8.2v-8.2h1.5v10.6h-1.5zm14.3-1.1c-.3.7-1.1 1.3-2.2 1.3-2.1 0-3.4-1.7-3.4-3.8 0-2 1.4-3.8 3.4-3.8 1.3 0 2 .6 2.2 1.2v-4.7h1.4v9.5c0 .7.1 1.2.1 1.3h-1.4c0-.2-.1-.5-.1-1zm-2.1 0c1.3 0 2.1-1.1 2.1-2.6s-.8-2.5-2.1-2.5-2.1 1-2.1 2.5.8 2.6 2.1 2.6zm12.9-1c-.4 1.3-1.6 2.3-3.2 2.3-1.9 0-3.6-1.4-3.6-3.9 0-2.3 1.6-3.8 3.5-3.8 2.2 0 3.5 1.5 3.5 3.8v.4h-5.6c0 1.3 1 2.2 2.2 2.2 1.2 0 1.8-.6 2-1.5l1.2.5zm-1.4-2.3c0-1-.7-1.8-2-1.8-1.2 0-1.9.9-2 1.8h4zm7.2 4.4h-1.4l-2.9-7.2h1.6l2.1 5.6 2.1-5.6h1.5l-3 7.2zm11-2.1c-.4 1.3-1.6 2.3-3.2 2.3-1.9 0-3.6-1.4-3.6-3.9 0-2.3 1.6-3.8 3.4-3.8 2.2 0 3.5 1.5 3.5 3.8v.4h-5.4c0 1.3 1 2.2 2.2 2.2 1.2 0 1.8-.6 2-1.5l1.1.5zm-1.4-2.3c0-1-.7-1.8-2-1.8-1.2 0-1.9.9-2 1.8h4zm4 4.4v-10.9h1.4v10.9h-1.4zm11.4-3.7c0 2.2-1.5 3.8-3.7 3.8s-3.7-1.6-3.7-3.8c0-2.2 1.5-3.8 3.7-3.8 2.1 0 3.7 1.7 3.7 3.8zm-1.5 0c0-1.7-1-2.6-2.2-2.6s-2.2.9-2.2 2.6c0 1.7 1 2.6 2.2 2.6s2.2-.9 2.2-2.6zm4 6.5v-10.1h1.4v1.2c.4-.7 1.2-1.3 2.4-1.3 2.2 0 3.3 1.7 3.3 3.8 0 2.1-1.2 3.8-3.4 3.8-1.1 0-2-.5-2.3-1.2v3.8h-1.4zm3.5-9c-1.3 0-2.1 1.1-2.1 2.5 0 1.5.9 2.5 2.1 2.5 1.3 0 2.1-1.1 2.1-2.5.1-1.4-.7-2.5-2.1-2.5zm6.2 6.2v-7.2h1.4v1c.4-.8 1.3-1.2 2.2-1.2.9 0 1.8.4 2.2 1.4.6-1 1.5-1.4 2.4-1.4 1.3 0 2.5.9 2.5 2.7v4.7h-1.4v-4.5c0-.9-.5-1.6-1.5-1.6s-1.7.8-1.7 1.8v4.4h-1.5v-4.5c0-.9-.4-1.6-1.5-1.6-1 0-1.7.8-1.7 1.8v4.3h-1.4zm19.8-2.1c-.4 1.3-1.6 2.3-3.2 2.3-1.9 0-3.6-1.4-3.6-3.9 0-2.3 1.6-3.8 3.4-3.8 2.2 0 3.5 1.5 3.5 3.8v.4h-5.4c0 1.3 1 2.2 2.2 2.2 1.2 0 1.8-.6 2-1.5l1.1.5zm-1.4-2.3c0-1-.7-1.8-2-1.8-1.2 0-1.9.9-2 1.8h4zm5.4 4.4h-1.4v-7.2h1.4v1c.5-.9 1.4-1.2 2.2-1.2 1.7 0 2.6 1.2 2.6 2.9v4.6h-1.4v-4.3c0-1-.4-1.8-1.7-1.8-1.1 0-1.7.9-1.7 2v4zm9.7-7.3h1.6v1.3h-1.6v3.7c0 .7.3 1 1 1 .2 0 .4 0 .6-.1v1.3c-.1 0-.5.1-1 .1-1.2 0-2-.8-2-2.1v-4h-1.4v-1.3h.4c.8 0 1.1-.5 1.1-1.1v-1.2h1.3v2.4z"/><path class="st24" d="M129.3 981.2h541.4"/><path class="st22" d="M301 442.7v35.2h36.3v77.1h-85.3v-112.3h49"/><path class="st26" d="M301 442.7l36.3 35.2h-36.3z"/><path class="st22" d="M274.5 467.9v35.2h36.3v77.2h-85.3v-112.4h49"/><path class="st26" d="M274.5 467.9l36.3 35.2h-36.3z"/><path class="st22" d="M248 493.1v35.2h36.3v77.2h-85.3v-112.4h49"/><path class="st26" d="M248 493.1l36.3 35.2h-36.3z"/><path class="st22" d="M564.7 441.7v35.2h36.3v77.1h-85.3v-112.3h49"/><path class="st26" d="M564.7 441.7l36.3 35.2h-36.3z"/><path class="st22" d="M538.2 466.9v35.2h36.3v77.2h-85.3v-112.4h49"/><path class="st26" d="M538.2 466.9l36.3 35.2h-36.3z"/><path class="st22" d="M511.7 492.1v35.2h36.3v77.2h-85.3v-112.4h49"/><path class="st26" d="M511.7 492.1l36.3 35.2h-36.3z"/><path id="repo1_356_" class="st15" d="M337.8 200.5c0-12.4 28.2-22.4 63-22.4s63 10 63 22.4m-126 0v27.9c0 3 1.7 5.9 4.7 8.5 9.4 8.2 32 13.9 58.3 13.9 26.4 0 48.9-5.8 58.3-13.9 3-2.6 4.7-5.5 4.7-8.5v-27.9"/><path class="st34" d="M463.8 200.5c0 12.4-28.2 22.4-63 22.4s-63-10-63-22.4c0-12.4 28.2-22.4 63-22.4s63 10 63 22.4z"/><path id="repo1_355_" class="st15" d="M337.8 172.6c0-12.4 28.2-22.4 63-22.4s63 10 63 22.4m-126 0v27.9c0 3 1.7 5.9 4.7 8.5 9.4 8.2 32 13.9 58.3 13.9 26.4 0 48.9-5.8 58.3-13.9 3-2.6 4.7-5.5 4.7-8.5v-27.9"/><path class="st34" d="M463.8 172.6c0 12.4-28.2 22.4-63 22.4s-63-10-63-22.4c0-12.4 28.2-22.4 63-22.4s63 10 63 22.4z"/><path id="repo1_354_" class="st15" d="M337.8 144.7c0-12.4 28.2-22.4 63-22.4s63 10 63 22.4m-126 0v27.9c0 3 1.7 5.9 4.7 8.5 9.4 8.2 32 13.9 58.3 13.9 26.4 0 48.9-5.8 58.3-13.9 3-2.6 4.7-5.5 4.7-8.5v-27.9"/><path class="st34" d="M463.8 144.7c0 12.4-28.2 22.4-63 22.4s-63-10-63-22.4c0-12.4 28.2-22.4 63-22.4s63 10 63 22.4z"/><path id="repo1_353_" class="st15" d="M337.8 116.8c0-12.4 28.2-22.4 63-22.4s63 10 63 22.4m-126 0v27.9c0 3 1.7 5.9 4.7 8.5 9.4 8.2 32 13.9 58.3 13.9 26.4 0 48.9-5.8 58.3-13.9 3-2.6 4.7-5.5 4.7-8.5v-27.9"/><path class="st5" d="M463.8 116.8c0 12.4-28.2 22.4-63 22.4s-63-10-63-22.4c0-12.4 28.2-22.4 63-22.4s63 10 63 22.4z"/><path class="st37" d="M339.4 332.7l-51.1 73.1"/><path class="st38" d="M301.6 405.6l-15.1 2.7-2.7-15.1m41.6-59.3l15.1-2.7 2.7 15.1"/><path class="st37" d="M461.6 332.7l51.1 73.1"/><path class="st38" d="M499.4 405.6l15.1 2.7 2.7-15.1m-41.6-59.3l-15.1-2.7-2.7 15.1"/><path class="st10" d="M374.3 275.9c0-3.6 2.6-5.5 5.3-5.5 2.4 0 4.1 1.3 4.7 3.4l-1.4.5c-.4-1.6-1.6-2.5-3.3-2.5-1.9 0-3.8 1.4-3.8 4.2s1.8 4.2 3.8 4.2c1.8 0 3-1.1 3.4-2.5l1.3.5c-.6 2-2.2 3.4-4.7 3.4-2.8-.1-5.3-2.1-5.3-5.7zm18.5 3.3c-.4 1.3-1.6 2.3-3.2 2.3-1.9 0-3.6-1.4-3.6-3.9 0-2.3 1.6-3.8 3.5-3.8 2.2 0 3.5 1.5 3.5 3.8v.4h-5.4c0 1.3 1 2.2 2.2 2.2 1.2 0 1.8-.6 2-1.5l1 .5zm-1.4-2.3c0-1-.7-1.8-2-1.8-1.2 0-1.9.9-2 1.8h4zm5.4 4.3h-1.4v-7.2h1.4v1c.5-.9 1.4-1.2 2.2-1.2 1.7 0 2.6 1.2 2.6 2.9v4.6h-1.4v-4.3c0-1-.4-1.8-1.7-1.8-1.1 0-1.7.9-1.7 2v4zm9.7-7.2h1.6v1.3h-1.6v3.8c0 .7.3 1 1 1 .2 0 .4 0 .6-.1v1.2c-.1 0-.5.1-1 .1-1.2 0-2-.8-2-2.1v-4h-1.4v-1.2h.4c.8 0 1.1-.5 1.1-1.1v-1.2h1.3v2.3zm8 1.5h-.6c-1.2 0-2 .6-2 2.2v3.6h-1.4v-7.3h1.4v1.3c.5-1.1 1.4-1.4 2.2-1.4h.5v1.6zm4 1.6l1.9-.3c.4-.1.6-.3.6-.5 0-.7-.5-1.3-1.6-1.3-1 0-1.5.6-1.6 1.5l-1.4-.3c.2-1.4 1.4-2.3 3-2.3 2.2 0 3 1.2 3 2.6v3.6c0 .6.1 1 .1 1.2h-1.4c0-.2-.1-.5-.1-1-.3.5-1 1.2-2.3 1.2-1.5 0-2.4-1-2.4-2.2 0-1.3.9-2 2.2-2.2zm2.5 1.1v-.3l-2.2.3c-.6.1-1 .4-1 1.1 0 .5.4 1 1.2 1 1.1 0 2-.6 2-2.1zm4.3 3v-10.9h1.4v10.9h-1.4zm-52.8 10.3c-.1-.8-.8-1.8-2.2-1.8-1.2 0-2.1.8-2.1 1.8 0 .8.5 1.4 1.4 1.5l1.6.3c1.8.4 2.8 1.5 2.8 3 0 1.6-1.4 3.1-3.7 3.1-2.6 0-3.8-1.6-4-3.2l1.4-.4c.1 1.2.9 2.3 2.5 2.3 1.5 0 2.2-.8 2.2-1.7 0-.8-.5-1.4-1.6-1.6l-1.5-.3c-1.5-.3-2.6-1.3-2.6-2.9 0-1.7 1.5-3.2 3.5-3.2 2.4 0 3.4 1.5 3.6 2.6l-1.3.5zm11-2.9h1.5l-4.1 10.6h-1.5l-4-10.6h1.6l3.2 8.7 3.3-8.7zm11 10.6l-5.7-8.7v8.7h-1.5v-10.6h2l5.3 8.2v-8.2h1.5v10.6h-1.6zm13.3-5.7h-.6c-1.2 0-2 .6-2 2.2v3.6h-1.4v-7.3h1.4v1.3c.5-1.1 1.4-1.4 2.2-1.4h.5v1.6zm8.5 3.7c-.4 1.3-1.6 2.3-3.2 2.3-1.9 0-3.6-1.4-3.6-3.9 0-2.3 1.6-3.8 3.5-3.8 2.2 0 3.5 1.5 3.5 3.8v.4h-5.4c0 1.3 1 2.2 2.2 2.2 1.2 0 1.8-.6 2-1.5l1 .5zm-1.4-2.3c0-1-.7-1.8-2-1.8-1.2 0-1.9.9-2 1.8h4zm4 7.2v-10.1h1.4v1.1c.4-.7 1.2-1.3 2.4-1.3 2.2 0 3.3 1.7 3.3 3.8 0 2.1-1.2 3.8-3.4 3.8-1.1 0-2-.5-2.3-1.2v3.8h-1.4zm3.5-9c-1.3 0-2.1 1.1-2.1 2.5 0 1.5.9 2.5 2.1 2.5 1.3 0 2.1-1.1 2.1-2.5s-.8-2.5-2.1-2.5zm12.9 2.5c0 2.2-1.5 3.8-3.7 3.8s-3.7-1.6-3.7-3.8c0-2.2 1.5-3.8 3.7-3.8s3.7 1.6 3.7 3.8zm-1.4 0c0-1.7-1-2.6-2.2-2.6s-2.2.9-2.2 2.6c0 1.7 1 2.6 2.2 2.6s2.2-.9 2.2-2.6z"/><path class="st11" d="M514.8 803.5c3.1 6.8 9.9 11.2 17.3 11.2 7.5 0 14.3-4.4 17.4-11.3"/><path class="st26" d="M531.7 847.7s27.4.8 37.7-5.2c17-9.9-.3-30.2-13.7-33.6-4.1 7.7-13.3 13-24 13h.3c-10.7 0-19.8-5.4-24-13-13.4 3.4-30.7 23.8-13.7 33.6 10.3 6 37.7 5.2 37.7 5.2"/><circle class="st26" cx="532.1" cy="778" r="23"/><path class="st5" d="M542.8 765.8c2.6 20 7.9 2.4 11.8 17-2.2 10.4-11.4 18.2-22.5 18.2-12.7 0-23-10.3-23-23 0-1.3.1-2.6.3-3.9 1.1.1 26.3 11.1 33.4-8.3z"/><path class="st11" d="M544.7 798.3v10.6m-24.6 0v-10.3"/><path class="st4" d="M250.6 803.5c3.1 6.8 9.9 11.2 17.3 11.2 7.5 0 14.3-4.4 17.4-11.3"/><path class="st26" d="M268 847.7s27.4.8 37.7-5.2c17-9.9-.3-30.2-13.7-33.6-4.1 7.7-13.3 13-24 13h.3c-10.7 0-19.8-5.4-24-13-13.4 3.4-30.7 23.8-13.7 33.6 10.3 6 37.7 5.2 37.7 5.2"/><circle class="st26" cx="267.9" cy="778" r="23"/><path class="st4" d="M278 757.3c-6.7 17.2-19.4.5-32.6 25.5 2.2 10.4 11.4 18.2 22.5 18.2 12.7 0 23-10.3 23-23 0-1.3-11.1-5.9-12.9-20.7zm2.4 40v11.6m-24.6 0v-11.3"/><path class="st26" d="M244.9 778.5s0 10.6 4.6 14.5c-3.6 1.7-11.6-.9-10.5-1.7 4.5-3.1 5.9-12.8 5.9-12.8zm46-.5s-.2 11.1-4.8 15c3.6 1.7 11.6-.9 10.5-1.7-4.5-3.1-5.7-13.3-5.7-13.3z"/><path class="st37" d="M268.1 692.2v29.2m263.8-29.1v29.1"/><path class="st10" d="M250.5 625.9h1.5l-3 10.6h-1.5l-2.8-8.6-2.7 8.6h-1.5l-3.1-10.6h1.5l2.3 8.3 2.7-8.3h1.5l2.7 8.4 2.4-8.4zm10 7c0 2.2-1.5 3.8-3.7 3.8s-3.7-1.6-3.7-3.8c0-2.2 1.5-3.8 3.7-3.8 2.1 0 3.7 1.6 3.7 3.8zm-1.5 0c0-1.7-1.1-2.6-2.2-2.6-1.2 0-2.2.9-2.2 2.6 0 1.7 1 2.6 2.2 2.6 1.2 0 2.2-.9 2.2-2.6zm8-2.2h-.6c-1.2 0-2 .6-2 2.2v3.6h-1.4v-7.2h1.4v1.3c.5-1.1 1.4-1.4 2.2-1.4h.5v1.5zm5.6 1.7l3.1 4.2h-1.7l-2.4-3.2-1 1v2.2h-1.4v-10.9h1.4v6.8l3.1-3.2h1.9l-3 3.1zm6-6.8c.6 0 1 .4 1 1s-.5 1-1 1c-.6 0-1-.5-1-1 0-.6.4-1 1-1zm-.7 10.9v-7.2h1.4v7.2h-1.4zm5.9 0h-1.4v-7.2h1.4v1c.5-.9 1.4-1.2 2.2-1.2 1.7 0 2.6 1.2 2.6 2.9v4.6h-1.4v-4.3c0-1-.4-1.8-1.7-1.8-1.1 0-1.7.9-1.7 2v4zm8.6.1c.1 1 .9 1.8 2 1.8 1.5 0 2.2-.8 2.2-2.3v-1c-.3.7-1.1 1.2-2.2 1.2-1.9 0-3.3-1.5-3.3-3.5 0-1.9 1.3-3.5 3.3-3.5 1.1 0 1.9.4 2.2 1.1v-1h1.4v6.7c0 1.8-.9 3.6-3.6 3.6-1.8 0-3.1-1.1-3.3-2.7l1.3-.4zm4.3-3.9c0-1.4-.8-2.3-2.1-2.3-1.2 0-2.1.9-2.1 2.3s.8 2.3 2.1 2.3c1.2 0 2.1-.9 2.1-2.3zm-47 16.5c0-3.6 2.6-5.5 5.3-5.5 2.4 0 4.1 1.3 4.7 3.4l-1.4.5c-.4-1.6-1.6-2.5-3.3-2.5-1.9 0-3.8 1.4-3.8 4.2s1.8 4.2 3.8 4.2c1.8 0 3-1.1 3.4-2.5l1.3.5c-.6 2-2.2 3.4-4.7 3.4-2.8-.2-5.3-2.1-5.3-5.7zm19 1.7c0 2.2-1.5 3.8-3.7 3.8s-3.7-1.6-3.7-3.8c0-2.2 1.5-3.8 3.7-3.8s3.7 1.6 3.7 3.8zm-1.4 0c0-1.7-1-2.6-2.2-2.6s-2.2.9-2.2 2.6c0 1.7 1 2.6 2.2 2.6s2.2-.9 2.2-2.6zm4 6.5v-10.1h1.4v1.1c.4-.7 1.2-1.3 2.4-1.3 2.2 0 3.3 1.7 3.3 3.8 0 2.1-1.2 3.8-3.4 3.8-1.1 0-2-.5-2.3-1.2v3.8h-1.4zm3.5-9c-1.3 0-2.1 1.1-2.1 2.5 0 1.5.9 2.5 2.1 2.5 1.3 0 2.1-1.1 2.1-2.5s-.8-2.5-2.1-2.5zm6.1 9.1l1.8-3.8-3.1-6.4h1.6l2.2 5 2.2-5h1.5l-4.7 10.2h-1.5zm233.3-31.6h1.5l-3 10.6h-1.5l-2.8-8.6-2.7 8.6h-1.5l-3.1-10.6h1.5l2.3 8.3 2.7-8.3h1.5l2.7 8.4 2.4-8.4zm10 7c0 2.2-1.5 3.8-3.7 3.8s-3.7-1.6-3.7-3.8c0-2.2 1.5-3.8 3.7-3.8s3.7 1.6 3.7 3.8zm-1.5 0c0-1.7-1-2.6-2.2-2.6-1.2 0-2.2.9-2.2 2.6 0 1.7 1.1 2.6 2.2 2.6 1.2 0 2.2-.9 2.2-2.6zm8-2.2h-.6c-1.2 0-2 .6-2 2.2v3.6h-1.4v-7.2h1.4v1.3c.5-1.1 1.4-1.4 2.2-1.4h.5v1.5zm5.7 1.7l3.1 4.2h-1.8l-2.4-3.2-1 1v2.2h-1.3v-10.9h1.4v6.8l3.1-3.2h2l-3.1 3.1zm5.9-6.8c.6 0 1 .4 1 1s-.4 1-1 1-1-.5-1-1c0-.6.5-1 1-1zm-.7 10.9v-7.2h1.4v7.2h-1.4zm6 0h-1.4v-7.2h1.4v1c.5-.9 1.4-1.2 2.2-1.2 1.7 0 2.6 1.2 2.6 2.9v4.6h-1.4v-4.3c0-1-.4-1.8-1.7-1.8-1.1 0-1.7.9-1.7 2v4zm8.6.1c.1 1 .9 1.8 2 1.8 1.5 0 2.2-.8 2.2-2.3v-1c-.3.7-1.1 1.2-2.2 1.2-1.9 0-3.3-1.5-3.3-3.5 0-1.9 1.3-3.5 3.3-3.5 1.1 0 1.9.4 2.2 1.1v-1h1.4v6.7c0 1.8-.9 3.6-3.6 3.6-1.8 0-3.2-1.1-3.3-2.7l1.3-.4zm4.2-3.9c0-1.4-.8-2.3-2.1-2.3-1.2 0-2.1.9-2.1 2.3s.8 2.3 2.1 2.3 2.1-.9 2.1-2.3zm-47 16.5c0-3.6 2.6-5.5 5.3-5.5 2.4 0 4.1 1.3 4.7 3.4l-1.4.5c-.4-1.6-1.6-2.5-3.3-2.5-1.9 0-3.8 1.4-3.8 4.2s1.8 4.2 3.8 4.2c1.8 0 3-1.1 3.4-2.5l1.3.5c-.6 2-2.2 3.4-4.7 3.4-2.7-.1-5.3-2.1-5.3-5.7zm19 1.7c0 2.2-1.5 3.8-3.7 3.8s-3.7-1.6-3.7-3.8c0-2.2 1.5-3.8 3.7-3.8s3.7 1.6 3.7 3.8zm-1.4 0c0-1.7-1-2.6-2.2-2.6-1.2 0-2.2.9-2.2 2.6 0 1.7 1.1 2.6 2.2 2.6s2.2-.9 2.2-2.6zm4 6.5v-10.1h1.4v1.1c.4-.7 1.2-1.3 2.4-1.3 2.2 0 3.3 1.7 3.3 3.8 0 2.1-1.2 3.8-3.4 3.8-1.1 0-1.9-.5-2.3-1.2v3.8h-1.4zm3.5-9c-1.3 0-2.1 1.1-2.1 2.5 0 1.5.9 2.5 2.1 2.5 1.3 0 2.1-1.1 2.1-2.5s-.8-2.5-2.1-2.5zm6.1 9.1l1.8-3.8-3.1-6.4h1.6l2.2 5 2.2-5h1.5l-4.7 10.2h-1.5zm-300.1 222.6v-10.6h3.7c2.7 0 5.1 1.8 5.1 5.3s-2.4 5.3-5.1 5.3h-3.7zm3.6-1.3c2 0 3.6-1.3 3.6-4s-1.6-4-3.6-4h-2.2v8h2.2zm14.1-.7c-.4 1.3-1.6 2.3-3.2 2.3-1.9 0-3.6-1.4-3.6-3.9 0-2.3 1.6-3.8 3.5-3.8 2.2 0 3.5 1.5 3.5 3.8v.4h-5.4c0 1.3 1 2.2 2.2 2.2 1.2 0 1.8-.6 2-1.5l1 .5zm-1.5-2.3c0-1-.7-1.8-2-1.8-1.2 0-1.9.9-2 1.8h4zm7.2 4.3h-1.4l-2.9-7.2h1.6l2.1 5.6 2.1-5.6h1.5l-3 7.2zm9.8-7.2h2.2l.5-2.5h1.3l-.5 2.5h2.1l.5-2.5h1.3l-.5 2.5h2v1.1h-2.3l-.5 2.4h2v1.1h-2.3l-.5 2.5h-1.3l.5-2.5h-2.1l-.5 2.5h-1.3l.5-2.5h-1.9v-1.1h2.1l.5-2.4h-1.9v-1.1zm2.6 3.6h2.1l.5-2.4h-2.1l-.5 2.4zm10.3 3.6v-6.9h-2.4v-1c1.3 0 2.3-.8 2.5-1.8h1.3v9.7h-1.4zm216.3 0v-10.6h3.7c2.7 0 5.1 1.8 5.1 5.3s-2.4 5.3-5.1 5.3h-3.7zm3.6-1.3c2 0 3.6-1.3 3.6-4s-1.6-4-3.6-4h-2.2v8h2.2zm14.1-.7c-.4 1.3-1.6 2.3-3.2 2.3-1.9 0-3.6-1.4-3.6-3.9 0-2.3 1.6-3.8 3.4-3.8 2.2 0 3.5 1.5 3.5 3.8v.4h-5.4c0 1.3 1 2.2 2.2 2.2 1.2 0 1.8-.6 2-1.5l1.1.5zm-1.5-2.3c0-1-.7-1.8-2-1.8-1.2 0-1.9.9-2 1.8h4zm7.2 4.3h-1.4l-2.9-7.2h1.6l2.1 5.6 2.1-5.6h1.5l-3 7.2zm9.8-7.2h2.2l.5-2.5h1.3l-.5 2.5h2.1l.5-2.5h1.3l-.5 2.5h2v1.1h-2.3l-.5 2.4h2v1.1h-2.3l-.5 2.5h-1.3l.5-2.5h-2.1l-.5 2.5h-1.3l.5-2.5h-1.9v-1.1h2.1l.5-2.4h-1.9v-1.1zm2.7 3.6h2.1l.5-2.4h-2.1l-.5 2.4zm8.1-2.8v-.4c0-1.7 1.2-3.1 3.4-3.1 2.1 0 3.3 1.4 3.3 3 0 1.3-.7 2.3-1.8 3l-1.9 1.2c-.6.4-1.1.8-1.2 1.4h5v1.4h-6.8c0-1.6.7-2.8 2.3-3.9l1.6-1.1c.9-.6 1.3-1.3 1.3-2 0-.9-.6-1.7-1.8-1.7-1.3 0-1.9.9-1.9 2v.4l-1.5-.2z"/></svg>